<?xml version="1.0" encoding="UTF-8"?>
<svg shape-rendering="geometricprecision" viewBox="38.97 218.38 309.09 69.522" xmlns="http://www.w3.org/2000/svg">
<g transform="matrix(.77654 0 0 .75017 20.509 73.707)" style="">
<path d="m57.5 200.5c8.8229-1.344 15.823 1.489 21 8.5 5.0551 1.014 10.055 2.181 15 3.5 3.4589 15.704 2.2922 31.037-3.5 46-17.605 27.539-35.605 27.873-54 1-4.6487-8.78-6.482-18.113-5.5-28-0.0699-6.064 0.4301-12.064 1.5-18 4.5032-2.501 9.3365-4.001 14.5-4.5 3.0556-3.834 6.7222-6.668 11-8.5z" fill="#194871"/>
</g>
<g transform="matrix(.77654 0 0 .75017 20.509 73.707)" style="">
<path d="m65.5 204.5c4.0159-0.149 7.3492 1.684 10 5.5-1.5449 1.688-2.5449 3.688-3 6 2.6019 0.935 4.1019 2.768 4.5 5.5 0.3333-1.667 0.6667-3.333 1-5 0.8461 4.462-0.1539 8.462-3 12-0.3076-0.808-0.8076-1.475-1.5-2-2.3178 1.449-4.3178 3.282-6 5.5 0.6667 0.333 1.3333 0.667 2 1-3.5387 1.504-7.2054 1.837-11 1 2.3333-0.333 4.6667-0.667 7-1-3.9564-0.789-7.6231-2.289-11-4.5-1.622 2.354-3.122 2.354-4.5 0-1.7213-2.815-2.3879-5.815-2-9 0.6667 0.667 1.3333 1.333 2 2 1.0458-1.59 2.2125-3.09 3.5-4.5-0.7489-1.734-1.2489-3.567-1.5-5.5-1.0495 1.017-2.2161 1.184-3.5 0.5 1.8603-3.36 4.527-5.86 8-7.5 1.6775 2.579 3.8442 4.579 6.5 6 0.6667 1.667 0.6667 3.333 0 5-1.7713 0.804-3.2713 1.971-4.5 3.5 1.2143 2.351 2.0477 4.851 2.5 7.5 2.6667-1.333 5.3333-1.333 8 0-1.0406-3.025-0.5406-5.858 1.5-8.5-4.6198-1.141-6.9532-4.141-7-9 1.3333-1 2.6667-2 4-3-0.5442-0.717-1.2109-1.217-2-1.5z" fill="#ebeff3"/>
</g>
<g transform="matrix(.77654 0 0 .75017 20.509 73.707)" style="">
<path d="m44.5 221.5c-3.3952-0.556-5.5619 0.777-6.5 4-1.8308 7.962-1.9975 15.962-0.5 24h16c1.9027-8.285 6.9027-10.785 15-7.5 2.5414 1.848 3.5414 4.348 3 7.5 5.5934 0.307 11.093-0.027 16.5-1 0.6667-7.333 0.6667-14.667 0-22-0.7761-3.337-2.9428-5.003-6.5-5 0.2683-2.619-0.065-5.119-1-7.5 6.1994-1.003 9.6994 1.497 10.5 7.5 0.6667 7 0.6667 14 0 21-0.7509 4.711-2.2509 9.044-4.5 13v-4h-15c-0.4235 5.418-3.4235 8.085-9 8-4.4035-0.391-7.4035-2.724-9-7-2.5-0.333-5-0.667-7.5-1-2.9294 0.025-5.4294 0.691-7.5 2-1.9171-3.304-3.0838-6.971-3.5-11-0.6667-8-0.6667-16 0-24 0.2492-1.124 0.7492-2.124 1.5-3 2.3333-0.667 4.6667-1.333 7-2 0.98 2.586 1.3134 5.253 1 8z" fill="#f6f9f5"/>
</g>
<g transform="matrix(.77654 0 0 .75017 20.509 73.707)" style="">
<path d="m44.5 221.5c4.142 14.894 13.475 19.394 28 13.5 4.8142-3.31 7.8142-7.81 9-13.5 3.5572-3e-3 5.7239 1.663 6.5 5 0.6667 7.333 0.6667 14.667 0 22-5.4066 0.973-10.907 1.307-16.5 1 0.5414-3.152-0.4586-5.652-3-7.5-8.0973-3.285-13.097-0.785-15 7.5h-16c-1.4975-8.038-1.3308-16.038 0.5-24 0.9381-3.223 3.1048-4.556 6.5-4z" fill="#82cb54"/>
</g>
<g transform="matrix(.77654 0 0 .75017 20.509 73.707)" style="">
<path d="m60.5 245.5c2.9629-0.349 5.2962 0.651 7 3-3 1.333-6 1.333-9 0 0.6925-1.018 1.3592-2.018 2-3z" fill="#8ed062"/>
</g>
<g transform="matrix(.77654 0 0 .75017 20.509 73.707)" style="">
<path d="m86.5 255.5c-4.8118 10.469-12.812 17.469-24 21-11.973-3.642-19.973-11.308-24-23 2.0706-1.309 4.5706-1.975 7.5-2 2.5 0.333 5 0.667 7.5 1 1.5965 4.276 4.5965 6.609 9 7 5.5765 0.085 8.5765-2.582 9-8h15v4z" fill="#81ca52"/>
</g>
<g transform="matrix(.77654 0 0 .75017 20.509 73.707)" style="">
<path d="m58.5 252.5c2.5241-1.3 5.1908-1.3 8 0-2.5799 2.563-5.2465 2.563-8 0z" fill="#83cc53"/>
</g>
<g transform="matrix(.77654 0 0 .75017 20.509 73.707)" style="">
<path d="m61.5 265.5c3.1193 0.088 4.1193 1.421 3 4-1.1888 0.929-2.5222 1.262-4 1 0.17-1.322-0.1634-2.489-1-3.5 0.9158-0.278 1.5825-0.778 2-1.5z" fill="#f7fbf3"/>
</g>
<path d="m113.37 243.82v10.199h9.165v2.632h-9.165v13.301h-4.794v-28.811h15.134v2.679zm23.35-2.679q4.982 0 7.05 2.562 2.068 2.561 2.068 6.65t-2.068 6.627-7.05 2.538h-4.7v10.434h-4.794v-28.811h9.494zm-0.658 16.685q2.585 0 3.784-1.974 1.198-1.974 1.198-5.499 0-3.478-1.198-5.452-1.199-1.974-3.784-1.974h-4.042v14.899h4.042zm27.815 9.729v2.397h-14.852v-28.811h4.794v26.414zm34.852-23.547-7.849 25.85v0.094h-4.277l-7.849-26.179-0.658 26.179h-2.82l0.799-28.811h6.251l7.144 24.064 7.285-24.064h6.486l0.846 28.811h-4.747zm21 26.508q-5.922 0-8.765-3.642-2.844-3.643-2.844-11.304 0-7.755 2.82-11.374t8.789-3.619q6.016 0 8.836 3.643 2.82 3.642 2.82 11.35 0 7.661-2.843 11.304-2.844 3.642-8.813 3.642zm0-2.021q3.478 0 5.17-3.172 1.692-3.173 1.692-9.753 0-6.674-1.692-9.846-1.692-3.173-5.17-3.173t-5.146 3.149q-1.669 3.149-1.669 9.87 0 6.674 1.669 9.8 1.668 3.125 5.146 3.125zm38.676 1.457h-5.217l-14.194-24.064v24.064h-2.82v-28.811h5.123l14.241 24.017v-24.017h2.82v28.764zm10.8 0h-4.794v-28.811h4.794zm22.226-28.811v2.397h-7.614v26.414h-4.794v-26.414h-7.708v-2.397zm12.259 29.375q-5.922 0-8.765-3.642-2.844-3.643-2.844-11.304 0-7.755 2.82-11.374t8.789-3.619q6.016 0 8.836 3.643 2.82 3.642 2.82 11.35 0 7.661-2.843 11.304-2.844 3.642-8.813 3.642zm0-2.021q3.478 0 5.17-3.172 1.692-3.173 1.692-9.753 0-6.674-1.692-9.846-1.692-3.173-5.17-3.173t-5.146 3.149q-1.669 3.149-1.669 9.87 0 6.674 1.669 9.8 1.668 3.125 5.146 3.125zm36.412 1.457h-5.17l-4.042-10.011q-0.564-1.363-1.386-1.809-0.823-0.447-2.515-0.447h-2.209v12.267h-4.794v-28.811h9.635q5.123 0 7.191 2.515 2.068 2.514 2.068 6.086 0 2.632-1.245 4.677-1.246 2.044-4.301 2.843 1.692 0.611 2.444 2.256zm-10.998-14.006q2.538 0 3.76-1.809 1.222-1.81 1.222-4.395 0-2.867-1.222-4.841t-3.76-1.974h-4.324v13.019z" fill="#fff" style="text-transform:capitalize"/>
</svg>
